<svg width="50" height="50" viewBox="0 0 50 50" fill="none" xmlns="http://www.w3.org/2000/svg">
<circle cx="25" cy="25" r="25" fill="#CC2014" fill-opacity="0.15"/>
<path d="M28.0521 9.91669H22.9479C22.1408 9.91671 21.3621 10.2142 20.7605 10.7523C20.1589 11.2903 19.7768 12.0313 19.6871 12.8334H17.1146C16.2444 12.8334 15.4098 13.1791 14.7944 13.7944C14.1791 14.4098 13.8333 15.2444 13.8333 16.1146V21.7292C15.3779 20.9399 17.1366 20.6725 18.8459 20.9672C20.5552 21.2619 22.1229 22.1027 23.314 23.3636C24.5051 24.6245 25.2553 26.2375 25.4523 27.9608C25.6492 29.6841 25.2822 31.4248 24.4063 32.9219L27.6686 36.1856C28.0411 36.5577 28.2894 37.036 28.3795 37.5547C28.4696 38.0735 28.397 38.6075 28.1717 39.0834H33.8854C34.3163 39.0834 34.743 38.9985 35.1411 38.8336C35.5392 38.6687 35.9009 38.427 36.2056 38.1223C36.5103 37.8176 36.752 37.4559 36.9169 37.0578C37.0818 36.6597 37.1667 36.233 37.1667 35.8021V16.1146C37.1667 15.6837 37.0818 15.257 36.9169 14.8589C36.752 14.4608 36.5103 14.0991 36.2056 13.7944C35.9009 13.4897 35.5392 13.248 35.1411 13.0831C34.743 12.9182 34.3163 12.8334 33.8854 12.8334H31.3129C31.2233 12.0313 30.8411 11.2903 30.2395 10.7523C29.638 10.2142 28.8592 9.91671 28.0521 9.91669ZM22.9479 12.1042H28.0521C28.3422 12.1042 28.6204 12.2194 28.8255 12.4245C29.0306 12.6297 29.1458 12.9079 29.1458 13.1979C29.1458 13.488 29.0306 13.7662 28.8255 13.9713C28.6204 14.1765 28.3422 14.2917 28.0521 14.2917H22.9479C22.6579 14.2917 22.3797 14.1765 22.1745 13.9713C21.9694 13.7662 21.8542 13.488 21.8542 13.1979C21.8542 12.9079 21.9694 12.6297 22.1745 12.4245C22.3797 12.2194 22.6579 12.1042 22.9479 12.1042ZM22.5104 33.0896C23.5665 31.8281 24.1101 30.2159 24.0337 28.5725C23.9573 26.9291 23.2664 25.3743 22.0979 24.2162C20.9294 23.0581 19.3685 22.3811 17.7245 22.3194C16.0804 22.2576 14.4732 22.8157 13.2211 23.8829C11.9691 24.9502 11.1636 26.4488 10.9642 28.0819C10.7648 29.7149 11.186 31.3633 12.1445 32.7005C13.103 34.0376 14.5287 34.966 16.1393 35.3017C17.7499 35.6374 19.4278 35.3559 20.8406 34.5129L25.0917 38.7625C25.1918 38.87 25.3126 38.9562 25.4467 39.016C25.5809 39.0757 25.7257 39.1079 25.8726 39.1105C26.0194 39.1131 26.1653 39.086 26.3015 39.031C26.4377 38.976 26.5614 38.8941 26.6653 38.7903C26.7691 38.6864 26.851 38.5627 26.906 38.4265C26.961 38.2903 26.9881 38.1445 26.9855 37.9976C26.9829 37.8507 26.9507 37.7059 26.8909 37.5717C26.8312 37.4376 26.745 37.3168 26.6375 37.2167L22.5104 33.0896ZM17.4792 33.25C16.3189 33.25 15.2061 32.7891 14.3856 31.9686C13.5651 31.1481 13.1042 30.0353 13.1042 28.875C13.1042 27.7147 13.5651 26.6019 14.3856 25.7814C15.2061 24.961 16.3189 24.5 17.4792 24.5C18.6395 24.5 19.7523 24.961 20.5728 25.7814C21.3932 26.6019 21.8542 27.7147 21.8542 28.875C21.8542 30.0353 21.3932 31.1481 20.5728 31.9686C19.7523 32.7891 18.6395 33.25 17.4792 33.25Z" fill="#D5463C"/>
</svg>
