<svg width="19" height="23" viewBox="0 0 19 23" fill="none" xmlns="http://www.w3.org/2000/svg">
<path d="M3.875 0.25H15.125C16.0201 0.25 16.8786 0.605579 17.5115 1.23851C18.1444 1.87145 18.5 2.72989 18.5 3.625V19.375C18.5 20.2701 18.1444 21.1285 17.5115 21.7615C16.8786 22.3944 16.0201 22.75 15.125 22.75H3.875C2.97989 22.75 2.12145 22.3944 1.48851 21.7615C0.855579 21.1285 0.5 20.2701 0.5 19.375L0.5 3.625C0.5 2.72989 0.855579 1.87145 1.48851 1.23851C2.12145 0.605579 2.97989 0.25 3.875 0.25V0.25ZM12.875 2.5C12.5766 2.5 12.2905 2.61853 12.0795 2.8295C11.8685 3.04048 11.75 3.32663 11.75 3.625C11.75 3.92337 11.8685 4.20952 12.0795 4.42049C12.2905 4.63147 12.5766 4.75 12.875 4.75H15.125C15.4234 4.75 15.7095 4.63147 15.9205 4.42049C16.1315 4.20952 16.25 3.92337 16.25 3.625C16.25 3.32663 16.1315 3.04048 15.9205 2.8295C15.7095 2.61853 15.4234 2.5 15.125 2.5H12.875ZM3.875 10.375C3.57663 10.375 3.29048 10.4935 3.0795 10.7045C2.86853 10.9155 2.75 11.2016 2.75 11.5C2.75 11.7984 2.86853 12.0845 3.0795 12.2955C3.29048 12.5065 3.57663 12.625 3.875 12.625H15.125C15.4234 12.625 15.7095 12.5065 15.9205 12.2955C16.1315 12.0845 16.25 11.7984 16.25 11.5C16.25 11.2016 16.1315 10.9155 15.9205 10.7045C15.7095 10.4935 15.4234 10.375 15.125 10.375H3.875ZM3.875 13.75C3.57663 13.75 3.29048 13.8685 3.0795 14.0795C2.86853 14.2905 2.75 14.5766 2.75 14.875C2.75 15.1734 2.86853 15.4595 3.0795 15.6705C3.29048 15.8815 3.57663 16 3.875 16H15.125C15.4234 16 15.7095 15.8815 15.9205 15.6705C16.1315 15.4595 16.25 15.1734 16.25 14.875C16.25 14.5766 16.1315 14.2905 15.9205 14.0795C15.7095 13.8685 15.4234 13.75 15.125 13.75H3.875ZM3.875 17.125C3.57663 17.125 3.29048 17.2435 3.0795 17.4545C2.86853 17.6655 2.75 17.9516 2.75 18.25C2.75 18.5484 2.86853 18.8345 3.0795 19.0455C3.29048 19.2565 3.57663 19.375 3.875 19.375H9.5C9.79837 19.375 10.0845 19.2565 10.2955 19.0455C10.5065 18.8345 10.625 18.5484 10.625 18.25C10.625 17.9516 10.5065 17.6655 10.2955 17.4545C10.0845 17.2435 9.79837 17.125 9.5 17.125H3.875ZM12.875 5.875C12.5766 5.875 12.2905 5.99353 12.0795 6.2045C11.8685 6.41548 11.75 6.70163 11.75 7C11.75 7.29837 11.8685 7.58452 12.0795 7.79549C12.2905 8.00647 12.5766 8.125 12.875 8.125H15.125C15.4234 8.125 15.7095 8.00647 15.9205 7.79549C16.1315 7.58452 16.25 7.29837 16.25 7C16.25 6.70163 16.1315 6.41548 15.9205 6.2045C15.7095 5.99353 15.4234 5.875 15.125 5.875H12.875ZM3.875 2.5C3.57663 2.5 3.29048 2.61853 3.0795 2.8295C2.86853 3.04048 2.75 3.32663 2.75 3.625V7C2.75 7.29837 2.86853 7.58452 3.0795 7.79549C3.29048 8.00647 3.57663 8.125 3.875 8.125H9.5C9.79837 8.125 10.0845 8.00647 10.2955 7.79549C10.5065 7.58452 10.625 7.29837 10.625 7V3.625C10.625 3.32663 10.5065 3.04048 10.2955 2.8295C10.0845 2.61853 9.79837 2.5 9.5 2.5H3.875Z" fill="#DB635A"/>
</svg>
