<svg width="27" height="26" viewBox="0 0 27 26" fill="none" xmlns="http://www.w3.org/2000/svg">
<path d="M6.75 3.21875V1.78775C6.75 1.17856 7.22081 0.6875 7.80469 0.6875C8.38856 0.6875 8.85938 1.17856 8.85938 1.78775V3.21875H6.75ZM17.2969 15.2C17.2969 15.0434 17.3591 14.8931 17.4699 14.7824C17.5806 14.6716 17.7309 14.6094 17.8875 14.6094H20.0812C20.2379 14.6094 20.3881 14.6716 20.4989 14.7824C20.6096 14.8931 20.6719 15.0434 20.6719 15.2V17.3937C20.6719 17.5504 20.6096 17.7006 20.4989 17.8114C20.3881 17.9221 20.2379 17.9844 20.0812 17.9844H17.8875C17.7309 17.9844 17.5806 17.9221 17.4699 17.8114C17.3591 17.7006 17.2969 17.5504 17.2969 17.3937V15.2ZM6.32812 10.9812C6.32813 10.8246 6.39035 10.6744 6.50112 10.5636C6.61188 10.4529 6.76211 10.3906 6.91875 10.3906H9.1125C9.26914 10.3906 9.41937 10.4529 9.53013 10.5636C9.6409 10.6744 9.70312 10.8246 9.70312 10.9812V13.175C9.70312 13.3316 9.6409 13.4819 9.53013 13.5926C9.41937 13.7034 9.26914 13.7656 9.1125 13.7656H6.91875C6.76211 13.7656 6.61188 13.7034 6.50112 13.5926C6.39035 13.4819 6.32812 13.3316 6.32812 13.175V10.9812ZM7.17188 11.2344V12.9219H8.85938V11.2344H7.17188ZM11.8125 10.9812C11.8125 10.8246 11.8747 10.6744 11.9855 10.5636C12.0963 10.4529 12.2465 10.3906 12.4031 10.3906H14.5969C14.7535 10.3906 14.9037 10.4529 15.0145 10.5636C15.1253 10.6744 15.1875 10.8246 15.1875 10.9812V13.175C15.1875 13.3316 15.1253 13.4819 15.0145 13.5926C14.9037 13.7034 14.7535 13.7656 14.5969 13.7656H12.4031C12.2465 13.7656 12.0963 13.7034 11.9855 13.5926C11.8747 13.4819 11.8125 13.3316 11.8125 13.175V10.9812ZM12.6562 11.2344V12.9219H14.3438V11.2344H12.6562ZM17.2969 10.9812C17.2969 10.8246 17.3591 10.6744 17.4699 10.5636C17.5806 10.4529 17.7309 10.3906 17.8875 10.3906H20.0812C20.2379 10.3906 20.3881 10.4529 20.4989 10.5636C20.6096 10.6744 20.6719 10.8246 20.6719 10.9812V13.175C20.6719 13.3316 20.6096 13.4819 20.4989 13.5926C20.3881 13.7034 20.2379 13.7656 20.0812 13.7656H17.8875C17.7309 13.7656 17.5806 13.7034 17.4699 13.5926C17.3591 13.4819 17.2969 13.3316 17.2969 13.175V10.9812ZM18.1406 11.2344V12.9219H19.8281V11.2344H18.1406ZM6.32812 15.2C6.32813 15.0434 6.39035 14.8931 6.50112 14.7824C6.61188 14.6716 6.76211 14.6094 6.91875 14.6094H9.1125C9.26914 14.6094 9.41937 14.6716 9.53013 14.7824C9.6409 14.8931 9.70312 15.0434 9.70312 15.2V17.3937C9.70312 17.5504 9.6409 17.7006 9.53013 17.8114C9.41937 17.9221 9.26914 17.9844 9.1125 17.9844H6.91875C6.76211 17.9844 6.61188 17.9221 6.50112 17.8114C6.39035 17.7006 6.32812 17.5504 6.32812 17.3937V15.2ZM7.17188 15.4531V17.1406H8.85938V15.4531H7.17188ZM11.8125 15.2C11.8125 15.0434 11.8747 14.8931 11.9855 14.7824C12.0963 14.6716 12.2465 14.6094 12.4031 14.6094H14.5969C14.7535 14.6094 14.9037 14.6716 15.0145 14.7824C15.1253 14.8931 15.1875 15.0434 15.1875 15.2V17.3937C15.1875 17.5504 15.1253 17.7006 15.0145 17.8114C14.9037 17.9221 14.7535 17.9844 14.5969 17.9844H12.4031C12.2465 17.9844 12.0963 17.9221 11.9855 17.8114C11.8747 17.7006 11.8125 17.5504 11.8125 17.3937V15.2ZM12.6562 15.4531V17.1406H14.3438V15.4531H12.6562ZM6.32812 19.4188C6.32813 19.2621 6.39035 19.1119 6.50112 19.0011C6.61188 18.8904 6.76211 18.8281 6.91875 18.8281H9.1125C9.26914 18.8281 9.41937 18.8904 9.53013 19.0011C9.6409 19.1119 9.70312 19.2621 9.70312 19.4188V21.6125C9.70312 21.7691 9.6409 21.9194 9.53013 22.0301C9.41937 22.1409 9.26914 22.2031 9.1125 22.2031H6.91875C6.76211 22.2031 6.61188 22.1409 6.50112 22.0301C6.39035 21.9194 6.32812 21.7691 6.32812 21.6125V19.4188ZM7.17188 19.6719V21.3594H8.85938V19.6719H7.17188ZM11.8125 19.4188C11.8125 19.2621 11.8747 19.1119 11.9855 19.0011C12.0963 18.8904 12.2465 18.8281 12.4031 18.8281H14.5969C14.7535 18.8281 14.9037 18.8904 15.0145 19.0011C15.1253 19.1119 15.1875 19.2621 15.1875 19.4188V21.6125C15.1875 21.7691 15.1253 21.9194 15.0145 22.0301C14.9037 22.1409 14.7535 22.2031 14.5969 22.2031H12.4031C12.2465 22.2031 12.0963 22.1409 11.9855 22.0301C11.8747 21.9194 11.8125 21.7691 11.8125 21.6125V19.4188ZM12.6562 19.6719V21.3594H14.3438V19.6719H12.6562Z" fill="#D64D43"/>
<path d="M6.75 4.64973C6.75 5.25891 7.22081 5.74998 7.80469 5.74998C8.38856 5.74998 8.85938 5.25891 8.85938 4.64973V3.21873H18.1406V4.64973C18.1406 5.25891 18.6114 5.74998 19.1953 5.74998C19.7792 5.74998 20.25 5.25891 20.25 4.64973V3.21873H22.9846C24.7312 3.21873 26.1562 4.64551 26.1562 6.41232V21.14C26.1562 23.3506 24.3633 25.1562 22.1408 25.1562H4.86C3.79537 25.1544 2.77486 24.7307 2.02205 23.9779C1.26925 23.2251 0.845535 22.2046 0.84375 21.14V6.41232C0.84375 4.64551 2.26969 3.21029 4.01541 3.21873H6.75V4.64973ZM2.53125 8.28123V21.14C2.53303 21.7569 2.77884 22.3481 3.21499 22.7844C3.65115 23.2207 4.24223 23.4667 4.85916 23.4687H18.9928V22.2031H17.8875C17.7309 22.2031 17.5806 22.1409 17.4699 22.0301C17.3591 21.9193 17.2969 21.7691 17.2969 21.6125V19.4187C17.2969 19.2621 17.3591 19.1119 17.4699 19.0011C17.5806 18.8903 17.7309 18.8281 17.8875 18.8281H20.0812C20.1384 18.8281 20.1952 18.8363 20.25 18.8526C20.8997 18.2923 21.7292 17.9841 22.5872 17.9844H24.4688V8.28123H2.53125ZM19.0021 21.3146C19.0447 20.7311 19.2302 20.1669 19.5421 19.6719H18.1406V21.3594H18.9996L19.0021 21.3146ZM19.8366 23.2941L24.3025 18.8281H22.5872C21.8584 18.8303 21.16 19.1208 20.6447 19.6362C20.1293 20.1516 19.8388 20.8499 19.8366 21.5787V23.2941Z" fill="#D64D43"/>
<path d="M18.1406 1.78775V3.21875H20.25V1.78775C20.25 1.17856 19.7792 0.6875 19.1953 0.6875C18.6114 0.6875 18.1406 1.17856 18.1406 1.78775Z" fill="#D64D43"/>
</svg>
