<svg width="27" height="27" viewBox="0 0 27 27" fill="none" xmlns="http://www.w3.org/2000/svg">
<path d="M26.0766 2.7744C23.7006 1.99545 17.55 -0.0200985 17.55 0.000151474C17.55 1.07428 17.1233 2.10441 16.3638 2.86393C15.6043 3.62345 14.5741 4.05015 13.5 4.05015C12.4259 4.05015 11.3957 3.62345 10.6362 2.86393C9.8767 2.10441 9.45001 1.07428 9.45001 0.000151474C9.45001 -0.0200985 3.29942 1.99545 0.922068 2.7744C0.652717 2.86269 0.418325 3.03416 0.252632 3.26414C0.0869392 3.49412 -0.00150879 3.77075 1.94761e-05 4.0542V9.07079C7.61223e-05 9.27585 0.0468467 9.4782 0.136782 9.66249C0.226717 9.84678 0.357452 10.0082 0.519065 10.1344C0.680679 10.2606 0.868922 10.3483 1.06951 10.3909C1.27009 10.4336 1.47775 10.4299 1.67672 10.3803L5.40001 9.45014V25.6501C5.40001 26.0082 5.54224 26.3515 5.79542 26.6047C6.04859 26.8579 6.39197 27.0001 6.75001 27.0001H20.25C20.608 27.0001 20.9514 26.8579 21.2046 26.6047C21.4578 26.3515 21.6 26.0082 21.6 25.6501V9.45014L25.3233 10.3803C25.5223 10.4299 25.7299 10.4336 25.9305 10.3909C26.1311 10.3483 26.3193 10.2606 26.4809 10.1344C26.6426 10.0082 26.7733 9.84678 26.8632 9.66249C26.9532 9.4782 26.9999 9.27585 27 9.07079V4.0542C27.0014 3.77058 26.9128 3.49383 26.7468 3.26383C26.5809 3.03383 26.3462 2.86245 26.0766 2.7744Z" fill="#D64D43"/>
</svg>
