<svg width="27" height="27" viewBox="0 0 27 27" fill="none" xmlns="http://www.w3.org/2000/svg">
<path d="M23.9805 4.56188C22.0005 3.91275 16.875 2.23313 16.875 2.25C16.875 3.14511 16.5194 4.00355 15.8865 4.63649C15.2536 5.26942 14.3951 5.625 13.5 5.625C12.6049 5.625 11.7465 5.26942 11.1135 4.63649C10.4806 4.00355 10.125 3.14511 10.125 2.25C10.125 2.23313 4.99952 3.91275 3.01839 4.56188C2.79393 4.63545 2.5986 4.77835 2.46053 4.97C2.32245 5.16165 2.24874 5.39217 2.25002 5.62838V9.80888C2.25006 9.97976 2.28904 10.1484 2.36398 10.302C2.43893 10.4555 2.54788 10.59 2.68256 10.6952C2.81723 10.8004 2.9741 10.8735 3.14126 10.909C3.30841 10.9445 3.48146 10.9415 3.64727 10.9001L6.75002 10.125V23.625C6.75002 23.9234 6.86854 24.2095 7.07952 24.4205C7.2905 24.6315 7.57665 24.75 7.87502 24.75H19.125C19.4234 24.75 19.7095 24.6315 19.9205 24.4205C20.1315 24.2095 20.25 23.9234 20.25 23.625V10.125L23.3528 10.9001C23.5186 10.9415 23.6916 10.9445 23.8588 10.909C24.0259 10.8735 24.1828 10.8004 24.3175 10.6952C24.4522 10.59 24.5611 10.4555 24.636 10.302C24.711 10.1484 24.75 9.97976 24.75 9.80888V5.62838C24.7512 5.39203 24.6773 5.16141 24.5391 4.96974C24.4008 4.77807 24.2052 4.63526 23.9805 4.56188V4.56188Z" fill="#DB635A"/>
</svg>
