<svg width="27" height="27" viewBox="0 0 27 27" fill="none" xmlns="http://www.w3.org/2000/svg">
<path d="M6.75 4.21875V2.78775C6.75 2.17856 7.22081 1.6875 7.80469 1.6875C8.38856 1.6875 8.85938 2.17856 8.85938 2.78775V4.21875H6.75ZM17.2969 16.2C17.2969 16.0434 17.3591 15.8931 17.4699 15.7824C17.5806 15.6716 17.7309 15.6094 17.8875 15.6094H20.0812C20.2379 15.6094 20.3881 15.6716 20.4989 15.7824C20.6096 15.8931 20.6719 16.0434 20.6719 16.2V18.3937C20.6719 18.5504 20.6096 18.7006 20.4989 18.8114C20.3881 18.9221 20.2379 18.9844 20.0812 18.9844H17.8875C17.7309 18.9844 17.5806 18.9221 17.4699 18.8114C17.3591 18.7006 17.2969 18.5504 17.2969 18.3937V16.2ZM6.32812 11.9812C6.32813 11.8246 6.39035 11.6744 6.50112 11.5636C6.61188 11.4529 6.76211 11.3906 6.91875 11.3906H9.1125C9.26914 11.3906 9.41937 11.4529 9.53013 11.5636C9.6409 11.6744 9.70312 11.8246 9.70312 11.9812V14.175C9.70312 14.3316 9.6409 14.4819 9.53013 14.5926C9.41937 14.7034 9.26914 14.7656 9.1125 14.7656H6.91875C6.76211 14.7656 6.61188 14.7034 6.50112 14.5926C6.39035 14.4819 6.32812 14.3316 6.32812 14.175V11.9812V11.9812ZM7.17188 12.2344V13.9219H8.85938V12.2344H7.17188ZM11.8125 11.9812C11.8125 11.8246 11.8747 11.6744 11.9855 11.5636C12.0963 11.4529 12.2465 11.3906 12.4031 11.3906H14.5969C14.7535 11.3906 14.9037 11.4529 15.0145 11.5636C15.1253 11.6744 15.1875 11.8246 15.1875 11.9812V14.175C15.1875 14.3316 15.1253 14.4819 15.0145 14.5926C14.9037 14.7034 14.7535 14.7656 14.5969 14.7656H12.4031C12.2465 14.7656 12.0963 14.7034 11.9855 14.5926C11.8747 14.4819 11.8125 14.3316 11.8125 14.175V11.9812V11.9812ZM12.6562 12.2344V13.9219H14.3438V12.2344H12.6562ZM17.2969 11.9812C17.2969 11.8246 17.3591 11.6744 17.4699 11.5636C17.5806 11.4529 17.7309 11.3906 17.8875 11.3906H20.0812C20.2379 11.3906 20.3881 11.4529 20.4989 11.5636C20.6096 11.6744 20.6719 11.8246 20.6719 11.9812V14.175C20.6719 14.3316 20.6096 14.4819 20.4989 14.5926C20.3881 14.7034 20.2379 14.7656 20.0812 14.7656H17.8875C17.7309 14.7656 17.5806 14.7034 17.4699 14.5926C17.3591 14.4819 17.2969 14.3316 17.2969 14.175V11.9812V11.9812ZM18.1406 12.2344V13.9219H19.8281V12.2344H18.1406ZM6.32812 16.2C6.32813 16.0434 6.39035 15.8931 6.50112 15.7824C6.61188 15.6716 6.76211 15.6094 6.91875 15.6094H9.1125C9.26914 15.6094 9.41937 15.6716 9.53013 15.7824C9.6409 15.8931 9.70312 16.0434 9.70312 16.2V18.3937C9.70312 18.5504 9.6409 18.7006 9.53013 18.8114C9.41937 18.9221 9.26914 18.9844 9.1125 18.9844H6.91875C6.76211 18.9844 6.61188 18.9221 6.50112 18.8114C6.39035 18.7006 6.32812 18.5504 6.32812 18.3937V16.2V16.2ZM7.17188 16.4531V18.1406H8.85938V16.4531H7.17188ZM11.8125 16.2C11.8125 16.0434 11.8747 15.8931 11.9855 15.7824C12.0963 15.6716 12.2465 15.6094 12.4031 15.6094H14.5969C14.7535 15.6094 14.9037 15.6716 15.0145 15.7824C15.1253 15.8931 15.1875 16.0434 15.1875 16.2V18.3937C15.1875 18.5504 15.1253 18.7006 15.0145 18.8114C14.9037 18.9221 14.7535 18.9844 14.5969 18.9844H12.4031C12.2465 18.9844 12.0963 18.9221 11.9855 18.8114C11.8747 18.7006 11.8125 18.5504 11.8125 18.3937V16.2V16.2ZM12.6562 16.4531V18.1406H14.3438V16.4531H12.6562ZM6.32812 20.4188C6.32813 20.2621 6.39035 20.1119 6.50112 20.0011C6.61188 19.8904 6.76211 19.8281 6.91875 19.8281H9.1125C9.26914 19.8281 9.41937 19.8904 9.53013 20.0011C9.6409 20.1119 9.70312 20.2621 9.70312 20.4188V22.6125C9.70312 22.7691 9.6409 22.9194 9.53013 23.0301C9.41937 23.1409 9.26914 23.2031 9.1125 23.2031H6.91875C6.76211 23.2031 6.61188 23.1409 6.50112 23.0301C6.39035 22.9194 6.32812 22.7691 6.32812 22.6125V20.4188V20.4188ZM7.17188 20.6719V22.3594H8.85938V20.6719H7.17188ZM11.8125 20.4188C11.8125 20.2621 11.8747 20.1119 11.9855 20.0011C12.0963 19.8904 12.2465 19.8281 12.4031 19.8281H14.5969C14.7535 19.8281 14.9037 19.8904 15.0145 20.0011C15.1253 20.1119 15.1875 20.2621 15.1875 20.4188V22.6125C15.1875 22.7691 15.1253 22.9194 15.0145 23.0301C14.9037 23.1409 14.7535 23.2031 14.5969 23.2031H12.4031C12.2465 23.2031 12.0963 23.1409 11.9855 23.0301C11.8747 22.9194 11.8125 22.7691 11.8125 22.6125V20.4188V20.4188ZM12.6562 20.6719V22.3594H14.3438V20.6719H12.6562Z" fill="#D64D43"/>
<path d="M6.75 5.64973C6.75 6.25891 7.22081 6.74998 7.80469 6.74998C8.38856 6.74998 8.85938 6.25891 8.85938 5.64973V4.21873H18.1406V5.64973C18.1406 6.25891 18.6114 6.74998 19.1953 6.74998C19.7792 6.74998 20.25 6.25891 20.25 5.64973V4.21873H22.9846C24.7312 4.21873 26.1562 5.64551 26.1562 7.41232V22.14C26.1562 24.3506 24.3633 26.1562 22.1408 26.1562H4.86C3.79537 26.1544 2.77486 25.7307 2.02205 24.9779C1.26925 24.2251 0.845535 23.2046 0.84375 22.14V7.41232C0.84375 5.64551 2.26969 4.21029 4.01541 4.21873H6.75V5.64973ZM2.53125 9.28123V22.14C2.53303 22.7569 2.77884 23.3481 3.21499 23.7844C3.65115 24.2207 4.24223 24.4667 4.85916 24.4687H18.9928V23.2031H17.8875C17.7309 23.2031 17.5806 23.1409 17.4699 23.0301C17.3591 22.9193 17.2969 22.7691 17.2969 22.6125V20.4187C17.2969 20.2621 17.3591 20.1119 17.4699 20.0011C17.5806 19.8903 17.7309 19.8281 17.8875 19.8281H20.0812C20.1384 19.8281 20.1952 19.8363 20.25 19.8526C20.8997 19.2923 21.7292 18.9841 22.5872 18.9844H24.4688V9.28123H2.53125ZM19.0021 22.3146C19.0447 21.7311 19.2302 21.1669 19.5421 20.6719H18.1406V22.3594H18.9996L19.0021 22.3146ZM19.8366 24.2941L24.3025 19.8281H22.5872C21.8584 19.8303 21.16 20.1208 20.6447 20.6362C20.1293 21.1516 19.8388 21.8499 19.8366 22.5787V24.2941V24.2941Z" fill="#D64D43"/>
<path d="M18.1406 2.78775V4.21875H20.25V2.78775C20.25 2.17856 19.7792 1.6875 19.1953 1.6875C18.6114 1.6875 18.1406 2.17856 18.1406 2.78775V2.78775Z" fill="#D64D43"/>
</svg>
