<svg width="50" height="50" viewBox="0 0 50 50" fill="none" xmlns="http://www.w3.org/2000/svg">
<circle cx="25" cy="25" r="25" fill="#CC2014" fill-opacity="0.15"/>
<g clip-path="url(#clip0_248_6)">
<path d="M22.0844 31.915V21.9138H20.8975C20.0475 22.3669 19.2259 22.8716 18.4375 23.425V24.7281C19.1406 24.2462 20.2544 23.5656 20.7962 23.2712H20.8187V31.915H22.0844V31.915ZM24.3119 29.4681C24.4 30.6681 25.4256 32.1044 27.505 32.1044C29.8638 32.1044 31.255 30.1056 31.255 26.7212C31.255 23.095 29.7906 21.7188 27.5931 21.7188C25.8569 21.7188 24.2237 22.9787 24.2237 25.1106C24.2237 27.2856 25.7688 28.4294 27.3663 28.4294C28.765 28.4294 29.6725 27.7244 29.9594 26.9481H30.01C30.0025 29.4156 29.1456 31.0056 27.5631 31.0056C26.3181 31.0056 25.6731 30.1619 25.5944 29.4681H24.3119V29.4681ZM29.8488 25.1237C29.8488 26.4287 28.8006 27.3362 27.6288 27.3362C26.5019 27.3362 25.4838 26.6181 25.4838 25.0862C25.4838 23.5431 26.575 22.8175 27.6737 22.8175C28.8606 22.8175 29.8488 23.5637 29.8488 25.1237Z" fill="#CC2014" fill-opacity="0.8"/>
<path d="M16.5625 10C16.8111 10 17.0496 10.0988 17.2254 10.2746C17.4012 10.4504 17.5 10.6889 17.5 10.9375V11.875H32.5V10.9375C32.5 10.6889 32.5988 10.4504 32.7746 10.2746C32.9504 10.0988 33.1889 10 33.4375 10C33.6861 10 33.9246 10.0988 34.1004 10.2746C34.2762 10.4504 34.375 10.6889 34.375 10.9375V11.875H36.25C37.2446 11.875 38.1984 12.2701 38.9016 12.9733C39.6049 13.6766 40 14.6304 40 15.625V36.25C40 37.2446 39.6049 38.1984 38.9016 38.9016C38.1984 39.6049 37.2446 40 36.25 40H13.75C12.7554 40 11.8016 39.6049 11.0983 38.9016C10.3951 38.1984 10 37.2446 10 36.25V15.625C10 14.6304 10.3951 13.6766 11.0983 12.9733C11.8016 12.2701 12.7554 11.875 13.75 11.875H15.625V10.9375C15.625 10.6889 15.7238 10.4504 15.8996 10.2746C16.0754 10.0988 16.3139 10 16.5625 10V10ZM11.875 17.5V36.25C11.875 36.7473 12.0725 37.2242 12.4242 37.5758C12.7758 37.9275 13.2527 38.125 13.75 38.125H36.25C36.7473 38.125 37.2242 37.9275 37.5758 37.5758C37.9275 37.2242 38.125 36.7473 38.125 36.25V17.5H11.875Z" fill="#CC2014" fill-opacity="0.8"/>
</g>
<defs>
<clipPath id="clip0_248_6">
<rect width="30" height="30" fill="white" transform="translate(10 10)"/>
</clipPath>
</defs>
</svg>
