<svg xmlns="http://www.w3.org/2000/svg" width="50" height="50" fill="none" xmlns:v="https://vecta.io/nano">
<circle cx="25" cy="25" r="25" fill="#cc2014" fill-opacity=".15"/>
<g clip-path="url(#A)">
<path d="M32.134 27.634a.52.52 0 0 1 .366-.152.52.52 0 0 1 .366.152 3.02 3.02 0 0 0 3.384.614V33a1.25 1.25 0 0 1 1.25 1.25 1.25 1.25 0 0 1-1.25 1.25h-22.5a1.25 1.25 0 0 1-1.25-1.25A1.25 1.25 0 0 1 13.75 33v-4.753a3.02 3.02 0 0 0 3.384-.612c.048-.048.105-.086.168-.112s.13-.04.198-.04.135.013.198.04.12.064.168.112a3.02 3.02 0 0 0 2.134.884 3.02 3.02 0 0 0 2.134-.884c.048-.048.105-.086.168-.112s.13-.04.198-.04.135.013.198.04.12.064.168.112a3.02 3.02 0 0 0 2.134.884 3.02 3.02 0 0 0 2.134-.884c.048-.048.105-.086.168-.112s.13-.04.198-.04.135.013.198.04.12.064.168.112a3.02 3.02 0 0 0 2.134.884 3.02 3.02 0 0 0 2.134-.884v-.001zM30 15.5a1.25 1.25 0 0 1 1.25 1.25v2.5h1.25A3.75 3.75 0 0 1 36.25 23v1.983l-.884.884a.52.52 0 0 1-.366.152.52.52 0 0 1-.366-.152 3.02 3.02 0 0 0-.979-.654c-.366-.152-.759-.23-1.155-.23s-.789.078-1.155.23a3.02 3.02 0 0 0-.979.654.52.52 0 0 1-.366.152.52.52 0 0 1-.366-.152c-.28-.28-.613-.502-.979-.654s-.759-.23-1.155-.23-.789.078-1.155.23-.699.374-.979.654a.52.52 0 0 1-.366.152.52.52 0 0 1-.366-.152c-.28-.28-.613-.502-.979-.654s-.759-.23-1.155-.23-.789.078-1.155.23-.699.374-.979.654a.52.52 0 0 1-.366.152.52.52 0 0 1-.366-.152c-.28-.28-.613-.502-.979-.654s-.759-.23-1.155-.23-.789.078-1.155.23-.699.374-.979.654a.52.52 0 0 1-.366.152.52.52 0 0 1-.366-.152l-.884-.884V23a3.75 3.75 0 0 1 3.75-3.75h1.25v-2.5A1.25 1.25 0 0 1 20 15.5a1.25 1.25 0 0 1 1.25 1.25v2.5h2.5v-2.5A1.25 1.25 0 0 1 25 15.5a1.25 1.25 0 0 1 1.25 1.25v2.5h2.5v-2.5A1.25 1.25 0 0 1 30 15.5zm-4.375-5c-.399.797-.035 1.313.281 1.762.18.254.344.488.344.738A1.25 1.25 0 0 1 25 14.25 1.25 1.25 0 0 1 23.75 13c0-.69.625-1.875 1.875-2.5zm-5 0c-.399.797-.035 1.313.281 1.762.18.254.344.488.344.738A1.25 1.25 0 0 1 20 14.25 1.25 1.25 0 0 1 18.75 13c0-.69.625-1.875 1.875-2.5zm10 0c-.399.797-.035 1.313.281 1.762.18.254.344.488.344.738A1.25 1.25 0 0 1 30 14.25 1.25 1.25 0 0 1 28.75 13c0-.69.625-1.875 1.875-2.5z" fill="#d5463c"/>
</g>
<defs>
<clipPath id="A">
<path fill="#fff" transform="translate(10 8)" d="M0 0h30v30H0z"/>
</clipPath>
</defs>
</svg>