<svg width="50" height="50" viewBox="0 0 50 50" fill="none" xmlns="http://www.w3.org/2000/svg">
<circle cx="25" cy="25" r="25" fill="#CC2014" fill-opacity="0.15"/>
<path d="M19.8125 27.4542L23.9396 23.3271L13.7021 13.1042C12.6096 14.1998 11.9961 15.684 11.9961 17.2312C11.9961 18.7785 12.6096 20.2627 13.7021 21.3583L19.8125 27.4542ZM29.7 24.8146C31.9313 25.85 35.0667 25.1208 37.3854 22.8021C40.1709 20.0167 40.7104 16.0208 38.5667 13.8771C36.4375 11.7479 32.4417 12.2729 29.6417 15.0583C27.3229 17.3771 26.5938 20.5125 27.6292 22.7437L13.3959 36.9771L15.4521 39.0333L25.5 29.0146L35.5334 39.0479L37.5896 36.9917L27.5563 26.9583L29.7 24.8146Z" fill="#CC2014" fill-opacity="0.8"/>
</svg>
