<svg width="50" height="50" viewBox="0 0 50 50" fill="none" xmlns="http://www.w3.org/2000/svg">
<path d="M35.7143 12.1428H34.6429V11.1015C34.6429 10.5249 34.1996 10.03 33.623 10.0012C33.4781 9.99426 33.3333 10.0168 33.1974 10.0674C33.0615 10.118 32.9373 10.1957 32.8323 10.2958C32.7273 10.3958 32.6437 10.5161 32.5866 10.6495C32.5295 10.7828 32.5 10.9263 32.5 11.0713V12.1428H17.5V11.1015C17.5 10.5249 17.0567 10.03 16.4801 10.0012C16.3353 9.99426 16.1905 10.0168 16.0546 10.0674C15.9187 10.118 15.7944 10.1957 15.6894 10.2958C15.5844 10.3958 15.5009 10.5161 15.4437 10.6495C15.3866 10.7828 15.3572 10.9263 15.3571 11.0713V12.1428H14.2857C13.1491 12.1428 12.059 12.5943 11.2553 13.398C10.4515 14.2018 10 15.2918 10 16.4285V17.2321C10 17.3031 10.0282 17.3712 10.0785 17.4215C10.1287 17.4717 10.1968 17.4999 10.2679 17.4999H39.7321C39.8032 17.4999 39.8713 17.4717 39.9215 17.4215C39.9718 17.3712 40 17.3031 40 17.2321V16.4285C40 15.2918 39.5485 14.2018 38.7447 13.398C37.941 12.5943 36.8509 12.1428 35.7143 12.1428ZM39.7321 19.6428H10.2679C10.1968 19.6428 10.1287 19.671 10.0785 19.7212C10.0282 19.7715 10 19.8396 10 19.9106V35.7143C10 36.8509 10.4515 37.941 11.2553 38.7447C12.059 39.5485 13.1491 40 14.2857 40H35.7143C36.8509 40 37.941 39.5485 38.7447 38.7447C39.5485 37.941 40 36.8509 40 35.7143V19.9106C40 19.8396 39.9718 19.7715 39.9215 19.7212C39.8713 19.671 39.8032 19.6428 39.7321 19.6428ZM23.9004 34.7165C23.0855 35.36 21.9752 35.7143 20.7732 35.7143C18.9069 35.7143 17.5268 34.4982 16.9121 33.4576C16.7673 33.2128 16.7257 32.9206 16.7964 32.6452C16.8671 32.3698 17.0443 32.1338 17.2891 31.989C17.5338 31.8443 17.826 31.8027 18.1014 31.8734C18.3768 31.9441 18.6128 32.1213 18.7576 32.366C18.8299 32.4893 19.5042 33.5714 20.7732 33.5714C21.8888 33.5714 23.192 33.0832 23.192 31.7085C23.192 31.2899 23.1103 30.7073 22.7232 30.3102C22.1513 29.725 21.1998 29.4618 20.7069 29.4618C20.4228 29.4618 20.1502 29.3489 19.9493 29.148C19.7484 28.947 19.6355 28.6745 19.6355 28.3904C19.6355 28.1062 19.7484 27.8337 19.9493 27.6327C20.1502 27.4318 20.4228 27.3189 20.7069 27.3189C21.0317 27.3189 21.8728 27.1448 22.3998 26.6058C22.5424 26.4655 22.6549 26.2977 22.7305 26.1126C22.8062 25.9275 22.8433 25.7289 22.8397 25.529C22.8397 23.9734 20.9225 23.9285 20.7042 23.9285C19.5431 23.9285 19.1105 24.639 19.0924 24.6691C19.0228 24.794 18.9289 24.9036 18.8163 24.9915C18.7037 25.0795 18.5746 25.1441 18.4367 25.1814C18.2988 25.2188 18.1548 25.2282 18.0131 25.209C17.8715 25.1899 17.7352 25.1426 17.6121 25.07C17.489 24.9973 17.3817 24.9008 17.2965 24.7861C17.2113 24.6714 17.1499 24.5407 17.116 24.4019C17.082 24.2631 17.0761 24.1189 17.0987 23.9778C17.1213 23.8367 17.1719 23.7016 17.2475 23.5803C17.7592 22.7098 18.9364 21.7857 20.7042 21.7857C21.8051 21.7857 22.831 22.1051 23.5924 22.6843C24.4891 23.3674 24.9826 24.3772 24.9826 25.529C24.9856 26.0065 24.894 26.4799 24.7131 26.9218C24.5322 27.3637 24.2656 27.7654 23.9286 28.1038C23.8516 28.1828 23.7705 28.2564 23.6882 28.3281C23.8893 28.4734 24.0779 28.6354 24.252 28.8122C24.9592 29.5355 25.3328 30.5366 25.3328 31.7085C25.3348 32.9178 24.8252 33.9859 23.9004 34.7165V34.7165ZM32.5 34.375C32.5 34.6591 32.3871 34.9317 32.1862 35.1326C31.9853 35.3335 31.7127 35.4464 31.4286 35.4464C31.1444 35.4464 30.8719 35.3335 30.671 35.1326C30.47 34.9317 30.3571 34.6591 30.3571 34.375V25.0194L28.8498 26.1303C28.7365 26.2139 28.6079 26.2743 28.4713 26.3081C28.3347 26.3419 28.1927 26.3485 28.0536 26.3275C27.9144 26.3065 27.7807 26.2583 27.6602 26.1856C27.5397 26.1129 27.4347 26.0172 27.3511 25.904C27.2676 25.7907 27.2072 25.6621 27.1733 25.5255C27.1395 25.3889 27.1329 25.2469 27.1539 25.1078C27.1749 24.9686 27.2231 24.8349 27.2958 24.7144C27.3685 24.5939 27.4642 24.4888 27.5775 24.4053L30.485 22.2624C30.6691 22.1268 30.8918 22.0535 31.1205 22.0535H31.4286C31.7127 22.0535 31.9853 22.1664 32.1862 22.3673C32.3871 22.5683 32.5 22.8408 32.5 23.1249V34.375Z" fill="#D5463C"/>
<circle cx="25" cy="25" r="25" fill="#CC2014" fill-opacity="0.15"/>
</svg>
