<svg width="50" height="50" viewBox="0 0 50 50" fill="none" xmlns="http://www.w3.org/2000/svg">
<circle cx="25" cy="25" r="25" fill="#CC2014" fill-opacity="0.15"/>
<path d="M38.6249 24.1875V19.6666C38.6249 18.0625 37.3124 16.75 35.7083 16.75H24.0416L21.1249 13.8333H12.3749C10.7708 13.8333 9.45825 15.1458 9.45825 16.75V34.25C9.45825 35.8541 10.7708 37.1666 12.3749 37.1666H23.0208C24.9166 39.9375 28.1249 41.5416 31.3333 41.5416C37.0208 41.5416 41.5416 37.0208 41.5416 31.3333C41.5416 28.7083 40.5208 26.0833 38.6249 24.1875ZM31.3333 38.625C27.2499 38.625 24.0416 35.4166 24.0416 31.3333C24.0416 27.25 27.2499 24.0416 31.3333 24.0416C35.4166 24.0416 38.6249 27.25 38.6249 31.3333C38.6249 35.4166 35.4166 38.625 31.3333 38.625ZM32.7916 37.1666H29.8749V29.875H32.7916V37.1666ZM32.7916 28.4166H29.8749V25.5H32.7916V28.4166Z" fill="#CC2014" fill-opacity="0.8"/>
</svg>
