<svg width="27" height="27" viewBox="0 0 27 27" fill="none" xmlns="http://www.w3.org/2000/svg">
<path d="M7.875 2.25H19.125C20.0201 2.25 20.8786 2.60558 21.5115 3.23851C22.1444 3.87145 22.5 4.72989 22.5 5.625V21.375C22.5 22.2701 22.1444 23.1285 21.5115 23.7615C20.8786 24.3944 20.0201 24.75 19.125 24.75H7.875C6.97989 24.75 6.12145 24.3944 5.48851 23.7615C4.85558 23.1285 4.5 22.2701 4.5 21.375V5.625C4.5 4.72989 4.85558 3.87145 5.48851 3.23851C6.12145 2.60558 6.97989 2.25 7.875 2.25V2.25ZM16.875 4.5C16.5766 4.5 16.2905 4.61853 16.0795 4.8295C15.8685 5.04048 15.75 5.32663 15.75 5.625C15.75 5.92337 15.8685 6.20952 16.0795 6.42049C16.2905 6.63147 16.5766 6.75 16.875 6.75H19.125C19.4234 6.75 19.7095 6.63147 19.9205 6.42049C20.1315 6.20952 20.25 5.92337 20.25 5.625C20.25 5.32663 20.1315 5.04048 19.9205 4.8295C19.7095 4.61853 19.4234 4.5 19.125 4.5H16.875ZM7.875 12.375C7.57663 12.375 7.29048 12.4935 7.0795 12.7045C6.86853 12.9155 6.75 13.2016 6.75 13.5C6.75 13.7984 6.86853 14.0845 7.0795 14.2955C7.29048 14.5065 7.57663 14.625 7.875 14.625H19.125C19.4234 14.625 19.7095 14.5065 19.9205 14.2955C20.1315 14.0845 20.25 13.7984 20.25 13.5C20.25 13.2016 20.1315 12.9155 19.9205 12.7045C19.7095 12.4935 19.4234 12.375 19.125 12.375H7.875ZM7.875 15.75C7.57663 15.75 7.29048 15.8685 7.0795 16.0795C6.86853 16.2905 6.75 16.5766 6.75 16.875C6.75 17.1734 6.86853 17.4595 7.0795 17.6705C7.29048 17.8815 7.57663 18 7.875 18H19.125C19.4234 18 19.7095 17.8815 19.9205 17.6705C20.1315 17.4595 20.25 17.1734 20.25 16.875C20.25 16.5766 20.1315 16.2905 19.9205 16.0795C19.7095 15.8685 19.4234 15.75 19.125 15.75H7.875ZM7.875 19.125C7.57663 19.125 7.29048 19.2435 7.0795 19.4545C6.86853 19.6655 6.75 19.9516 6.75 20.25C6.75 20.5484 6.86853 20.8345 7.0795 21.0455C7.29048 21.2565 7.57663 21.375 7.875 21.375H13.5C13.7984 21.375 14.0845 21.2565 14.2955 21.0455C14.5065 20.8345 14.625 20.5484 14.625 20.25C14.625 19.9516 14.5065 19.6655 14.2955 19.4545C14.0845 19.2435 13.7984 19.125 13.5 19.125H7.875ZM16.875 7.875C16.5766 7.875 16.2905 7.99353 16.0795 8.2045C15.8685 8.41548 15.75 8.70163 15.75 9C15.75 9.29837 15.8685 9.58452 16.0795 9.79549C16.2905 10.0065 16.5766 10.125 16.875 10.125H19.125C19.4234 10.125 19.7095 10.0065 19.9205 9.79549C20.1315 9.58452 20.25 9.29837 20.25 9C20.25 8.70163 20.1315 8.41548 19.9205 8.2045C19.7095 7.99353 19.4234 7.875 19.125 7.875H16.875ZM7.875 4.5C7.57663 4.5 7.29048 4.61853 7.0795 4.8295C6.86853 5.04048 6.75 5.32663 6.75 5.625V9C6.75 9.29837 6.86853 9.58452 7.0795 9.79549C7.29048 10.0065 7.57663 10.125 7.875 10.125H13.5C13.7984 10.125 14.0845 10.0065 14.2955 9.79549C14.5065 9.58452 14.625 9.29837 14.625 9V5.625C14.625 5.32663 14.5065 5.04048 14.2955 4.8295C14.0845 4.61853 13.7984 4.5 13.5 4.5H7.875Z" fill="#DB635A"/>
</svg>
