<?xml version="1.0" encoding="UTF-8"?>
<svg viewBox="0 0 50 50" xmlns="http://www.w3.org/2000/svg">
<circle cx="25" cy="25" r="25" fill="#CC2014" fill-opacity=".15"/>
<path d="m28.052 9.9167h-5.1042c-0.8071 2e-5 -1.5858 0.29751-2.1874 0.83561-0.6016 0.538-0.9837 1.279-1.0734 2.0811h-2.5725c-0.8702 0-1.7048 0.3457-2.3202 0.961-0.6153 0.6154-0.9611 1.45-0.9611 2.3202v5.6146c1.5446-0.7893 3.3033-1.0567 5.0126-0.762s3.277 1.1355 4.4681 2.3964 1.9413 2.8739 2.1383 4.5972c0.1969 1.7233-0.1701 3.464-1.046 4.9611l3.2623 3.2637c0.3725 0.3721 0.6208 0.8504 0.7109 1.3691 0.0901 0.5188 0.0175 1.0528-0.2078 1.5287h5.7137c0.4309 0 0.8576-0.0849 1.2557-0.2498s0.7598-0.4066 1.0645-0.7113 0.5464-0.6664 0.7113-1.0645 0.2498-0.8248 0.2498-1.2557v-19.688c0-0.4309-0.0849-0.8576-0.2498-1.2557s-0.4066-0.7598-0.7113-1.0645-0.6664-0.5464-1.0645-0.7113-0.8248-0.2497-1.2557-0.2497h-2.5725c-0.0896-0.8021-0.4718-1.5431-1.0734-2.0811-0.6015-0.5381-1.3803-0.83559-2.1874-0.83561zm-5.1042 2.1875h5.1042c0.2901 0 0.5683 0.1152 0.7734 0.3203 0.2051 0.2052 0.3203 0.4834 0.3203 0.7734 0 0.2901-0.1152 0.5683-0.3203 0.7734-0.2051 0.2052-0.4833 0.3204-0.7734 0.3204h-5.1042c-0.29 0-0.5682-0.1152-0.7734-0.3204-0.2051-0.2051-0.3203-0.4833-0.3203-0.7734 0-0.29 0.1152-0.5682 0.3203-0.7734 0.2052-0.2051 0.4834-0.3203 0.7734-0.3203zm-0.4375 20.985c1.0561-1.2615 1.5997-2.8737 1.5233-4.5171s-0.7673-3.1982-1.9358-4.3563-2.7294-1.8351-4.3734-1.8968c-1.6441-0.0618-3.2513 0.4963-4.5034 1.5635-1.252 1.0673-2.0575 2.5659-2.2569 4.199-0.1994 1.633 0.2218 3.2814 1.1803 4.6186 0.9585 1.3371 2.3842 2.2655 3.9948 2.6012s3.2885 0.0542 4.7013-0.7888l4.2511 4.2496c0.1001 0.1075 0.2209 0.1937 0.355 0.2535 0.1342 0.0597 0.279 0.0919 0.4259 0.0945 0.1468 0.0026 0.2927-0.0245 0.4289-0.0795s0.2599-0.1369 0.3638-0.2407c0.1038-0.1039 0.1857-0.2276 0.2407-0.3638s0.0821-0.282 0.0795-0.4289-0.0348-0.2917-0.0946-0.4259c-0.0597-0.1341-0.1459-0.2549-0.2534-0.355l-4.1271-4.1271zm-5.0312 0.1604c-1.1603 0-2.2731-0.4609-3.0936-1.2814s-1.2814-1.9333-1.2814-3.0936 0.4609-2.2731 1.2814-3.0936c0.8205-0.8204 1.9333-1.2814 3.0936-1.2814s2.2731 0.461 3.0936 1.2814c0.8204 0.8205 1.2814 1.9333 1.2814 3.0936s-0.461 2.2731-1.2814 3.0936c-0.8205 0.8205-1.9333 1.2814-3.0936 1.2814z" fill="#D5463C"/>
</svg>
